<svg width="24" height="24" viewBox="0 0 24 24" fill="none" xmlns="http://www.w3.org/2000/svg">
<path d="M12 9.87C13.962 6.62267 15.6837 4.99933 17.165 5C19.387 5 20.79 7.582 21.609 11.086C22.391 14.434 22.165 19 19.387 19C18.149 19 16.445 17.174 14.777 14.74C13.7132 13.1994 12.7841 11.5701 12 9.87ZM12 9.87C9.84135 6.62267 7.94769 4.99933 6.31902 5C3.87402 5 2.33102 7.582 1.42902 11.086C0.570019 14.435 0.820019 19 3.87502 19C5.23702 19 7.11202 17.174 8.94502 14.74C10.1664 13.1153 11.1847 11.492 12 9.87Z" stroke="#888888" stroke-width="1.5" stroke-linecap="round" stroke-linejoin="round"/>
</svg>
