<svg width="180" height="180" viewBox="0 0 180 180" fill="none" xmlns="http://www.w3.org/2000/svg">
<circle cx="90" cy="90" r="89.5" stroke="#C9C5C5"/>
<g filter="url(#filter0_b_1212_18)">
<path d="M98 78H78C77.4696 78 76.9609 78.2107 76.5858 78.5858C76.2107 78.9609 76 79.4696 76 80V100C76 100.53 76.2107 101.039 76.5858 101.414C76.9609 101.789 77.4696 102 78 102H98C98.5304 102 99.0391 101.789 99.4142 101.414C99.7893 101.039 100 100.53 100 100V80C100 79.4696 99.7893 78.9609 99.4142 78.5858C99.0391 78.2107 98.5304 78 98 78Z" stroke="#0FA958" stroke-width="4" stroke-linecap="round" stroke-linejoin="round"/>
<path d="M100 98L92.6667 91.3334L86 97.3334L81.3333 93.3334L76 97.3334M84 89.3334C84.8841 89.3334 85.7319 88.9822 86.357 88.357C86.9821 87.7319 87.3333 86.8841 87.3333 86C87.3333 85.116 86.9821 84.2681 86.357 83.643C85.7319 83.0179 84.8841 82.6667 84 82.6667C83.1159 82.6667 82.2681 83.0179 81.643 83.643C81.0179 84.2681 80.6667 85.116 80.6667 86C80.6667 86.8841 81.0179 87.7319 81.643 88.357C82.2681 88.9822 83.1159 89.3334 84 89.3334Z" stroke="#0FA958" stroke-width="4" stroke-linecap="round" stroke-linejoin="round"/>
</g>
<circle cx="88" cy="90" r="39.5" stroke="#C9C5C5"/>
<circle cx="90" cy="90" r="64.5" stroke="#C9C5C5"/>
<defs>
<filter id="filter0_b_1212_18" x="68" y="70" width="40" height="40" filterUnits="userSpaceOnUse" color-interpolation-filters="sRGB">
<feFlood flood-opacity="0" result="BackgroundImageFix"/>
<feGaussianBlur in="BackgroundImageFix" stdDeviation="2"/>
<feComposite in2="SourceAlpha" operator="in" result="effect1_backgroundBlur_1212_18"/>
<feBlend mode="normal" in="SourceGraphic" in2="effect1_backgroundBlur_1212_18" result="shape"/>
</filter>
</defs>
</svg>
