<svg width="48" height="48" viewBox="0 0 48 48" fill="none" xmlns="http://www.w3.org/2000/svg">
<path d="M39 6H9C8.20435 6 7.44129 6.31607 6.87868 6.87868C6.31607 7.44129 6 8.20435 6 9V39C6 39.7956 6.31607 40.5587 6.87868 41.1213C7.44129 41.6839 8.20435 42 9 42H39C39.7956 42 40.5587 41.6839 41.1213 41.1213C41.6839 40.5587 42 39.7956 42 39V9C42 8.20435 41.6839 7.44129 41.1213 6.87868C40.5587 6.31607 39.7956 6 39 6Z" stroke="#0FA958" stroke-width="4" stroke-linecap="round" stroke-linejoin="round"/>
<path d="M42 36L31 26L21 35L14 29L6 35M18 23C19.3261 23 20.5979 22.4732 21.5355 21.5355C22.4732 20.5979 23 19.3261 23 18C23 16.6739 22.4732 15.4021 21.5355 14.4645C20.5979 13.5268 19.3261 13 18 13C16.6739 13 15.4021 13.5268 14.4645 14.4645C13.5268 15.4021 13 16.6739 13 18C13 19.3261 13.5268 20.5979 14.4645 21.5355C15.4021 22.4732 16.6739 23 18 23Z" stroke="#0FA958" stroke-width="4" stroke-linecap="round" stroke-linejoin="round"/>
</svg>
