<svg width="24" height="24" viewBox="0 0 24 24" fill="none" xmlns="http://www.w3.org/2000/svg">
<path d="M14.9 5.09998C14.9 5.09998 14.7 5.15998 14.36 5.26998C14.3 5.08998 14.22 4.85998 14.1 4.63998C13.72 3.90998 13.16 3.52998 12.48 3.51998C12.43 3.51998 12.39 3.51998 12.34 3.52998C12.32 3.50998 12.3 3.47998 12.28 3.45998C11.99 3.13998 11.61 2.98998 11.16 2.99998C10.29 3.02998 9.42005 3.65998 8.71005 4.77998C8.21005 5.56998 7.84005 6.55998 7.73005 7.31998C6.73005 7.62998 6.03005 7.84998 6.01005 7.84998C5.50005 8.00998 5.49005 8.02998 5.42005 8.49998C5.37005 8.85998 4.05005 19.1 4.05005 19.1L15.03 21V5.07998C14.98 5.07998 14.93 5.08998 14.9 5.09998ZM12.36 5.88998C11.78 6.06998 11.14 6.26998 10.51 6.45998C10.69 5.76998 11.03 5.08998 11.45 4.63998C11.61 4.46998 11.82 4.28998 12.08 4.17998C12.32 4.68998 12.37 5.39998 12.36 5.88998ZM11.17 3.57998C11.37 3.57998 11.55 3.61998 11.7 3.71998C11.46 3.83998 11.24 4.01998 11.02 4.24998C10.47 4.83998 10.04 5.76998 9.87005 6.65998C9.34005 6.81998 8.83005 6.97998 8.35005 7.12998C8.65005 5.71998 9.83005 3.61998 11.17 3.57998ZM9.47005 11.57C9.53005 12.5 11.99 12.71 12.13 14.9C12.24 16.62 11.22 17.8 9.74005 17.89C7.98005 18 7.00005 16.96 7.00005 16.96L7.37005 15.37C7.37005 15.37 8.35005 16.11 9.13005 16.06C9.64005 16.03 9.82005 15.61 9.81005 15.32C9.73005 14.1 7.73005 14.17 7.61005 12.17C7.50005 10.48 8.61005 8.77998 11.05 8.61998C12 8.55998 12.48 8.79998 12.48 8.79998L11.92 10.89C11.92 10.89 11.3 10.61 10.56 10.65C9.48005 10.72 9.46005 11.4 9.47005 11.57ZM12.94 5.70998C12.93 5.26998 12.88 4.64998 12.67 4.11998C13.33 4.24998 13.66 4.98998 13.8 5.43998C13.55 5.51998 13.26 5.60998 12.94 5.70998ZM15.39 20.96L19.95 19.83C19.95 19.83 17.99 6.56998 17.98 6.47998C17.97 6.38998 17.89 6.33998 17.82 6.32998C17.75 6.31998 16.47 6.29998 16.47 6.29998C16.47 6.29998 15.69 5.53998 15.39 5.24998V20.96Z" fill="#888888"/>
</svg>
